<svg fill="none" xmlns="http://www.w3.org/2000/svg" viewBox="0 0 89 32">
  <rect width="88.396" height="32" rx="4" fill="#fff"/>
  <g clip-path="url(#PRLvJsxPdGx-a)">
    <path d="M23.289 9.263c0-.698.565-1.244 1.244-1.244.678 0 1.243.565 1.243 1.244a1.243 1.243 0 11-2.487 0zm51.75 9.178c-.113-.076-.17-.227-.17-.434V8.17h-2.958v1.715h1.036v8.348c0 1.376.735 2.092 2.092 2.092.34 0 .792-.075 1.357-.264V18.29c-.886.339-1.225.245-1.357.15zm-49.47.037h.943v1.715h-3.807v-1.715h.942v-5.107h-1.055v-1.715h2.977v6.822zm-7.274-7.067c-1.131 0-2.036.377-2.865 1.187V8.151h-2.977v1.715h1.055v8.122c0 .207-.057.358-.17.434-.282.207-.98-.02-1.357-.151v1.771c.604.189 1 .264 1.338.264.867 0 1.47-.282 1.79-.848.736.566 1.697.848 2.809.848 2.657 0 4.504-1.847 4.504-4.504.038-2.525-1.715-4.39-4.127-4.39zm-.377 7.2c-1.414 0-2.45-1.132-2.45-2.677 0-1.62 1.018-2.77 2.488-2.77 1.187 0 2.468.829 2.468 2.62 0 1.639-1.055 2.826-2.506 2.826zm45.248-.321v1.771s-.772.264-1.338.264c-1.375 0-2.092-.735-2.092-2.092v-8.066l1.923-1.225v2.714h2.506l-1.244 1.715h-1.243v4.636c0 .207.056.358.17.433.338.264 1.318-.15 1.318-.15zm-32.094-6.88c-2.544 0-4.41 1.922-4.41 4.542 0 2.544 1.753 4.39 4.165 4.39 1.074 0 2.149-.451 2.846-1.168v.905c0 1.734-1.583 2.205-2.526 2.205-.697 0-1.413-.226-2.054-.678l-1.545 1.168c1.15.886 2.13 1.225 3.468 1.225 2.11 0 4.56-1.037 4.56-3.976v-4.071c.02-2.6-1.922-4.542-4.504-4.542zm.076 7.218c-1.433 0-2.45-1.112-2.45-2.714 0-1.564 1.036-2.695 2.487-2.695 1.433 0 2.526 1.15 2.526 2.695-.02 1.546-1.112 2.714-2.563 2.714zm41.027-2.3c0-3.222-2.262-4.918-4.504-4.918-2.13 0-4.316 1.696-4.316 4.504 0 2.526 2.016 4.504 4.58 4.504 1.545 0 2.807-.527 3.75-1.696l-1.451-1.093c-.604.735-1.376 1.074-2.262 1.074-1.32 0-2.261-.716-2.6-1.978h6.765s.038-.17.038-.396zm-6.785-1.337c.283-1.206 1.169-1.998 2.337-1.998 1.244 0 2.205.773 2.488 1.998H65.39zm-10.082-1.885v-1.45h-2.639v1.714h1.056v5.107h-1.546c-.188 0-.32-.038-.395-.132-.076-.075-.132-.226-.132-.414v-3.675c0-.83-.434-2.865-3.638-2.865-1.45 0-2.393.566-2.713.754l.772 1.432c.208-.132.886-.546 1.96-.508.453.018.867.113 1.169.32.358.245.527.66.527 1.13v.792c-.64-.358-1.432-.584-2.11-.584-1.696 0-2.563 1.036-3.411 2.054-.849 1.018-1.659 1.941-3.28 1.866-1.488-.057-2.393-1.187-2.393-2.827 0-1.527.961-2.525 2.337-2.563 1.526-.057 2.3 1.244 2.431 2.035l1.62-1.206c-.546-1.376-1.865-2.732-4.145-2.676-2.394.075-4.26 1.96-4.26 4.448 0 2.205 1.376 4.58 4.354 4.58 1.903 0 3.015-.849 3.844-1.753.453.998 1.49 1.64 2.676 1.64.886 0 1.602-.302 2.582-1.056.32.603.943.923 1.847.923h4.881v-1.715h-1.055v-2.054c0-2.11.716-3.053 2.337-3.053.396 0 .735.113.96.207v-1.752c-.206-.076-.564-.17-1.149-.17-1.074 0-1.96.528-2.487 1.451zm-5.56 4.768c-.64.566-1.413.905-2.073.905-.791 0-1.338-.51-1.338-1.225 0-.735.603-1.282 1.432-1.282.66 0 1.339.264 1.998.754-.019.132-.019.754-.019.848z" fill="#000"/>
  </g>
  <defs>
    <clipPath id="PRLvJsxPdGx-a">
      <path fill="#fff" transform="translate(12 8)" d="M0 0h64.396v16H0z"/>
    </clipPath>
  </defs>
</svg>
