<svg xmlns="http://www.w3.org/2000/svg" viewBox="0 0 449.49 98.63">
  <path d="M119.59 66.12c-.1-.1-.1-.3-.1-.4l1.6-1.9c.1-.1.3-.1.4 0 1.1.9 2.8 1.9 4.7 1.9 2.1 0 3.3-1.1 3.3-2.5 0-1.3-.8-2.1-3.2-2.4l-.9-.1c-3.4-.5-5.2-2.1-5.2-5 0-3.2 2.3-5.3 5.9-5.3 2.2 0 4.2.7 5.6 1.8.1.1.1.2.1.4l-1.2 1.9c-.1.1-.2.2-.4.1-1.4-.9-2.7-1.4-4.2-1.4-1.8 0-2.7 1-2.7 2.4 0 1.2.8 2 3.2 2.4l.9.1c3.4.5 5.2 2.1 5.2 5.1s-2.2 5.5-6.6 5.5c-2.6-.3-5.1-1.3-6.4-2.6zm16.8 2c-.1 0-.3-.1-.3-.3v-17.1c0-.2.1-.3.3-.3h6.5c3.4 0 5.7 2.2 5.7 5.5s-2.4 5.5-5.7 5.5h-3.6q-.1 0-.1.2v6.3c0 .2-.1.3-.3.3l-2.5-.1zm9.2-12.1c0-1.6-1.1-2.7-2.9-2.7h-3.4q-.1 0-.1.2v5.2c0 .1 0 .2.1.2h3.4c1.8-.2 2.9-1.3 2.9-2.9zm16.2 12.1c-.2 0-.3-.1-.4-.3l-3.3-6.9h-3c-.1 0-.2 0-.2.2v6.7c0 .2-.1.3-.3.3h-2.5c-.2 0-.3-.1-.3-.3v-17.1c0-.2.1-.3.3-.3h6.7c3.2 0 5.6 2.2 5.6 5.3 0 2.3-1.3 4.1-3.3 4.9l3.7 7.2c.1.2 0 .3-.2.3h-2.8zm-.3-12.4c0-1.5-1.1-2.5-2.7-2.5h-3.7c-.1 0-.2 0-.2.2v4.7c0 .1 0 .2.2.2h3.7c1.6 0 2.7-1 2.7-2.6zm6.9-5c0-.2.1-.3.3-.3h2.5c.2 0 .3.1.3.3v17.2c0 .2-.1.3-.3.3h-2.6c-.2 0-.3-.1-.3-.3.1 0 .1-17.2.1-17.2zm7.4 0c0-.2.1-.3.3-.3h2.4c.2 0 .3.1.4.3l7.1 12.2h.1v-12.2c0-.2.1-.3.3-.3h2.2c.2 0 .3.1.3.3v17.2c0 .2-.1.3-.3.3h-2.3c-.2 0-.3-.1-.4-.3l-7.3-12.2h-.1v12.2c0 .2-.1.3-.3.3h-2.2c-.2 0-.3-.1-.3-.3l.1-17.2zm21.2 17.4c-.2 0-.3-.1-.3-.3v-14.4c0-.1-.1-.2-.2-.2h-4.6c-.2 0-.3-.1-.3-.3v-2.2c0-.2.1-.3.3-.3h12.4c.2 0 .3.1.3.3v2.2c0 .2-.1.3-.3.3h-4.6c-.1 0-.2 0-.2.2v14.5c0 .2-.1.3-.3.3.3-.1-2.2-.1-2.2-.1zm16.5-8.8c0-2.8.1-3.7.5-4.8.9-2.9 3.1-4.3 6.1-4.3 2.8 0 4.9 1.5 5.9 3.8.1.1 0 .3-.1.3l-2.2 1.1c-.2.1-.3 0-.3-.1-.6-1.2-1.5-2.3-3.2-2.3s-2.6.9-3.1 2.3c-.2.7-.3 1.4-.3 4s.1 3.3.3 4c.5 1.4 1.5 2.3 3.1 2.3s2.7-1 3.2-2.3c.1-.1.2-.2.3-.1l2.2 1.1c.1 0 .2.2.1.3-1 2.3-3.1 3.8-5.9 3.8s-5.2-1.5-6.1-4.3c-.4-1.1-.5-2-.5-4.8zm15.8-8.6c0-.2.1-.3.3-.3h2.5c.2 0 .3.1.3.3v7c0 .1.1.2.2.2h6.6c.1 0 .2 0 .2-.2v-7c0-.2.1-.3.3-.3h2.5c.2 0 .3.1.3.3v17.2c0 .2-.1.3-.3.3h-2.6c-.2 0-.3-.1-.3-.3v-7.1c0-.1-.1-.2-.2-.2h-6.6c-.1 0-.2 0-.2.2v7.1c0 .2-.1.3-.3.3h-2.4c-.2 0-.3-.1-.3-.3v-17.2zm21.9 0c.1-.2.1-.3.3-.3h2.4c.2 0 .3.1.3.3l5.9 17.2c.1.2 0 .3-.2.3h-2.5c-.2 0-.3-.1-.3-.3l-1.1-3.4h-6.6l-1.1 3.4c-.1.2-.1.3-.3.3h-2.5c-.2 0-.2-.1-.2-.3l5.9-17.2zm3.8 11l-2.3-6.9h-.1l-2.3 6.9h4.7zm8-11c0-.2.1-.3.3-.3h2.5c.1 0 .3.1.3.3v14.5c0 .1.1.2.1.2h8c.1 0 .3.1.3.3v2.2c0 .2-.1.3-.3.3h-10.9c-.1 0-.3-.1-.3-.3v-17.2zm14.5 0c0-.2.1-.3.3-.3h2.5c.1 0 .3.1.3.3v14.5c0 .1.1.2.1.2h8c.1 0 .3.1.3.3v2.2c0 .2-.1.3-.3.3h-10.9c-.1 0-.3-.1-.3-.3v-17.2zm14.5 0c0-.2.1-.3.3-.3h10.9c.1 0 .3.1.3.3v2.2c0 .2-.1.3-.3.3h-8q-.1 0-.1.2v4.3c0 .1.1.2.1.2h6.7c.1 0 .3.1.3.3v2.2c0 .2-.1.3-.3.3h-6.7q-.1 0-.1.2v4.4c0 .1.1.2.1.2h8c.1 0 .3.1.3.3v2.2c0 .2-.1.3-.3.3h-10.9c-.1 0-.3-.1-.3-.3v-17.3zm15.2 0c0-.2.1-.3.3-.3h2.4c.2 0 .3.1.4.3l7.1 12.2h.1v-12.2c0-.2.1-.3.3-.3h2.2c.1 0 .3.1.3.3v17.2c0 .2-.1.3-.3.3h-2.4c-.2 0-.3-.1-.4-.3l-7.1-12.2h-.1v12.2c0 .2-.1.3-.3.3h-2.2c-.1 0-.3-.1-.3-.3v-17.2zm16.8 8.6c0-2.8.1-3.8.5-4.9.9-2.8 3.1-4.3 6.2-4.3s5.4 1.8 6.1 3.7c.1.1 0 .3-.1.4l-2.1 1c-.1 0-.3 0-.3-.1-.8-1.4-1.8-2.2-3.5-2.2s-2.8.9-3.3 2.3c-.2.7-.3 1.5-.3 4.1s.1 3.4.3 4.1c.5 1.4 1.5 2.3 3.3 2.3 1.5 0 2.8-.8 3.3-2.2.2-.5.3-1.3.3-2.3 0-.1-.1-.2-.1-.2h-2.9c-.1 0-.3-.1-.3-.3v-2.1c0-.2.1-.3.3-.3h5.8c.1 0 .3.1.3.3v1.5c0 1.5-.1 3-.4 3.9-.9 2.8-3.1 4.3-6.1 4.3s-5.3-1.5-6.2-4.3c-.7-.9-.8-1.9-.8-4.7zm17.1-8.6c0-.2.1-.3.3-.3h10.9c.1 0 .3.1.3.3v2.2c0 .2-.1.3-.3.3h-8q-.1 0-.1.2v4.3c0 .1.1.2.1.2h6.7c.1 0 .3.1.3.3v2.2c0 .2-.1.3-.3.3h-6.7q-.1 0-.1.2v4.4c0 .1.1.2.1.2h8c.1 0 .3.1.3.3v2.2c0 .2-.1.3-.3.3h-10.9c-.1 0-.3-.1-.3-.3v-17.3zm-220.4 26.4c0-.2.1-.3.2-.3h1.7c.2 0 .2.1.2.3v17.4c0 .2-.1.3-.2.3h-1.6c-.2 0-.2-.1-.2-.3-.1 0-.1-17.4-.1-17.4zm6.9 0c0-.2.1-.3.2-.3h1.6c.2 0 .3.1.4.3l7.8 13.4h.1v-13.4c0-.2.1-.3.2-.3h1.7c.1 0 .2.1.2.3v17.4c0 .2-.1.3-.2.3h-1.6c-.2 0-.3-.1-.4-.3l-7.8-13.4h-.1v13.4c0 .2-.1.3-.2.3h-1.7c-.1 0-.2-.1-.2-.3v-17.4zm16.9 0c0-.2.1-.3.2-.3h5.8c2.9 0 4.8 1.3 5.6 3.8.3 1 .5 1.9.5 5.1s-.2 4.2-.5 5.1c-.8 2.5-2.7 3.8-5.6 3.8h-5.8c-.1 0-.2-.1-.2-.3v-17.2zm2.4 15.5h3.1c2.1 0 3.3-.7 3.9-2.4.2-.7.3-1.5.3-4.3s-.1-3.7-.3-4.3c-.5-1.7-1.8-2.4-3.9-2.4h-3.1c-.1 0-.1.1-.1.2v13.2c-.1-.1 0 0 .1 0zm13.5-1.7c-.3-1-.5-2.1-.5-5.1s.1-4 .5-5.1c.9-2.8 2.9-4.2 5.8-4.2s5 1.4 5.8 4.2c.3 1 .5 2.1.5 5.1s-.1 4-.5 5.1c-.9 2.8-2.9 4.2-5.8 4.2s-4.9-1.5-5.8-4.2zm9.5-.7c.2-.7.4-1.8.4-4.4s-.2-3.7-.4-4.4c-.5-1.7-1.7-2.7-3.7-2.7s-3.1.9-3.6 2.7c-.2.7-.4 1.8-.4 4.4s.2 3.7.4 4.4c.5 1.7 1.7 2.7 3.6 2.7s3.1-1 3.7-2.7zm6.7-13.1c0-.2.1-.3.2-.3h1.6c.2 0 .3.1.4.3l7.8 13.4h.1v-13.4c0-.2.1-.3.2-.3h1.6c.2 0 .2.1.2.3v17.4c0 .2-.1.3-.2.3h-1.6c-.2 0-.3-.1-.4-.3l-7.8-13.4h-.1v13.4c0 .2-.1.3-.2.3h-1.6c-.2 0-.2-.1-.2-.3v-17.4zm16.8 0c0-.2.1-.3.2-.3h10.3c.2 0 .2.1.2.3v1.7c0 .2-.1.3-.2.3h-8.2c-.1 0-.2.1-.2.2v5.3c0 .1.1.2.2.2h6.9c.2 0 .2.1.2.3v1.7c0 .2-.1.3-.2.3h-6.9c-.1 0-.2.1-.2.2v5.5c0 .1.1.2.2.2h8.2c.2 0 .2.1.2.3v1.7c0 .2-.1.3-.2.3h-10.2c-.2 0-.2-.1-.2-.3l-.1-17.9zm13.8 15.7c-.1-.1-.1-.3 0-.4l1.1-1.4c.1-.1.2-.1.3 0 1.1.9 2.8 1.8 4.8 1.8 2.4 0 3.8-1.2 3.8-3.1 0-1.5-.8-2.6-3.6-2.9l-.8-.1c-3.3-.5-5-2.1-5-5 0-3.2 2.2-5.2 5.6-5.2 2 0 3.9.7 5.2 1.7.1.1.2.2.1.4l-.9 1.4c-.1.1-.2.1-.3.1-1.4-.9-2.7-1.3-4.1-1.3-2.1 0-3.2 1.2-3.2 2.9 0 1.5 1 2.5 3.6 2.9l.8.1c3.3.5 5 2.1 5 5 0 3.1-2.1 5.4-6.2 5.4-2.6-.1-5-1.1-6.2-2.3zm16.1-15.7c0-.2.1-.3.2-.3h1.7c.2 0 .2.1.2.3v17.4c0 .2-.1.3-.2.3h-1.7c-.2 0-.2-.1-.2-.3v-17.4zm11.3 0c.1-.2.1-.3.3-.3h1.6c.2 0 .3.1.3.3l5.9 17.4c.1.2 0 .3-.2.3h-1.8c-.2 0-.3-.1-.3-.3l-1.3-3.9h-6.9l-1.3 3.9c-.1.2-.2.3-.3.3h-1.8c-.2 0-.2-.1-.2-.3l6-17.4zm3.8 11.3l-2.7-8.2h-.1l-2.7 8.2h5.5zm139.6-81.3v4.4h34.9v3.8h-34.9v4.4h34.9v3.8h-39.3V3.32h39.3v3.8h-34.9zm-14.1 4.4h-26.9v-8.2h-4.5v20.1h4.5v-7.5h26.9v7.5h4.4V3.32h-4.4v8.2zm-73.1-3.7v11.2c0 2.5 2 4.5 4.4 4.5h32.1v-4.4h-31.5c-.3 0-.6-.2-.6-.6V8.42c.1-.4.4-.6.7-.6h31.4v-4.5h-32.1c-2.4 0-4.4 2-4.4 4.5zm-9.8 3.7h-28.3c-.4 0-.7-.3-.7-.7v-3c0-.4.3-.7.7-.7h32.1v-3.8h-32.9c-2.4 0-4.4 2-4.4 4.5v3c0 2.5 2 4.5 4.5 4.5h28.3c.4 0 .7.3.7.7v3c0 .4-.3.7-.7.7h-32.2v3.8h32.9c2.5 0 4.5-2 4.5-4.5v-3c0-2.5-2-4.5-4.5-4.5zm-42.9 5.1c2.4-.1 4.3-2.1 4.3-4.5v-4.3c0-2.4-2-4.4-4.4-4.4h-33.6v20.1h4.4v-5.3h24.7c2.5 0 4.5 2 4.5 4.5v.8h4.5v-.1c0-2.9-1.7-5.6-4.4-6.8zm-.2-3.6c0 .4-.3.7-.7.7h-28.4v-6h28.4c.4 0 .8.4.8.8l-.1 4.5zm-43.2-9.7h-28.5c-2.5 0-4.5 2-4.5 4.5v11.3c0 2.5 2 4.5 4.5 4.4h28.4c2.4 0 4.4-2 4.4-4.4V7.72c0-2.4-1.9-4.3-4.3-4.4zm-.1 15c0 .4-.3.7-.7.7h-27.1c-.3 0-.6-.2-.6-.5V8.42c0-.4.4-.6.7-.6h26.9c.4 0 .8.3.8.8v9.7zm-42.5-15h-33.5v20.2h4.4v-5.3h29c2.5 0 4.4-2 4.4-4.5v-6c.1-2.4-1.9-4.4-4.3-4.4zm0 9.7c0 .4-.3.7-.7.7h-28.4v-6h28.3c.4 0 .8.4.8.8v4.5z"/>
  <path fill="#e70006" d="M118.59 32.32h330.9v6h-330.9z"/>
  <path d="M11.95 70.12c-1.93-1.34-4.16.41-4.16 1.86s.96 1.86 1.67 2.3c.71.45.61 1.5-.83 1.5s-2.87-2.08-2.87-6.82c0-2.8 1.44-7.43 2.87-7.43s1.53 1.05.83 1.5c-.71.45-1.67.85-1.67 2.3s2.23 3.19 4.16 1.86 2.31-3.82.63-5.86c-1.74-2.12-6.68-1.86-8.65-.3C1.98 62.57.92 65.99.92 68.78c0 4.56 1.06 5.97 3.01 7.52 1.97 1.56 6.9 1.82 8.65-.3 1.68-2.04 1.3-4.53-.63-5.86zm21.1 18.96c-1.93-1.34-4.16.41-4.16 1.86s.96 1.86 1.67 2.3c.71.45.61 1.5-.83 1.5s-2.87-2.08-2.87-6.82c0-2.8 1.44-7.43 2.87-7.43s1.53 1.05.83 1.5c-.71.45-1.67.85-1.67 2.3s2.23 3.19 4.16 1.86 2.31-3.82.63-5.86c-1.74-2.12-6.68-1.86-8.65-.3-1.95 1.54-3.01 4.96-3.01 7.75 0 4.56 1.06 5.97 3.01 7.52 1.97 1.56 6.9 1.82 8.65-.3 1.68-2.04 1.3-4.53-.63-5.86zm15.2-5.4h-.1c-4.36.05-6.34 3.3-6.34 6.5s2.1 6.18 6.38 6.18 6.38-2.96 6.38-6.18-1.97-6.45-6.34-6.5zM50 93.43c0 1-.81 1.81-1.8 1.81s-1.81-.81-1.81-1.81v-6.64c0-.99.81-1.8 1.81-1.8.5 0 .95.2 1.28.53.33.33.53.78.53 1.28v6.64zM29 71.32c0-3.48-.22-6.78-6.38-7.05-6.16-.27-7.37 2.41-6.83 4.1.44 1.36 2.96 3.23 6.57-.55.19-.2.49.06.32.28-.45.58-1.3 1.29-2.92 1.96-3.6 1.49-4.72 2.37-4.62 4.25.13 2.43 3.77 4.3 8.89.6 0 0 .32 1.54 2.09 1.54h3.83s-.94-.67-.94-5.12zM21.28 75c-2.14 0-2.01-1.96-.84-2.98 1.07-.93 2.81-2.35 2.73-4.69a.33.33 0 00-.53-.25c-.49.37-1.29.84-2.07.69-1.24-.22-1.09-1.86.1-2.26 1.19-.4 3.55-.05 3.65 4.05.04 1.84-.89 5.44-3.03 5.44z"/>
  <path d="M30.86 69.84c0 1.88-.2 5.61-2.06 6.57h6.94s-1.41-3.07-1.41-5.38.5-3.92 1.41-4.73 1.84-.58 1.25.03-1.38 1.57-.81 3.11 4.81 2.82 5.19-2.26c.39-5.07-5.11-4.5-6.33-1.8 0 0-.06-.74.45-1.73H29.2s1.65 1.41 1.65 6.19z"/>
  <path d="M50.24 68.97c3.22 1.96 5.54 3.4 5.3 5.61-.35 3.29-4.94 5.57-13.64.55-1.96-1.13-1.77-.39-1.61-.12.65 1.12-.81 2.14-2.49.61s-.46-4.75 2.03-3.67c2.94 1.27 8.68 4.15 10.07 3.14 1.47-1.06-6.8-3.31-6.96-7.48-.1-2.64 2.3-4.44 4.39-3.86s4.63 2.95 3.97 1.61 1.51-2.87 2.6-1.26-.55 5.39-4.35 2.83c-3.8-2.56-3.49-.57-2.43.15s2.39 1.45 3.11 1.89zM40.05 86.71c0-4.57 1.65-7.96 1.65-7.96h-6.61s1.65 3.39 1.65 7.96c0 1.8-.2 8.23-2.06 9.14h7.43c-1.86-.91-2.06-7.34-2.06-9.14zm-35.85.88c.23 1.56 1.03 4.44 3.88 6.53.41.3.37.91-.08 1.14-1.69.88-5.19 2.16-6.91-1.08-1.74-3.28.59-5.83 2.03-7.01.4-.32 1-.09 1.08.42z"/>
  <path d="M10.66 79.31s-3.31.87-1.09 6.57c2.23 5.7 5.7 8.58 11.62 7.06 0 0-4.13 5.7-10.1 2.1C5.72 91.8 4.9 87.5 4.92 84.95c.02-3.26 2.31-5.91 5.73-5.64z"/>
  <path d="M12.2 79.59s.79.83-.4 1.98-.82 2.88.57 3.55c1.32.63 3.51-.1 3.5-2.63S12.2 79.6 12.2 79.6zm1.58 11.14s1.09-.38.54-1.97c-.56-1.58.48-2.95 2.14-2.93 1.56.01 3.33 1.78 1.95 3.97s-4.63.93-4.63.93zm6.79-64.18l4.04-12.2H12.3l-4.04 12.2h12.31zm16.36-12.2l-4.04 12.2H45.2l4.04-12.2H36.93zm-16.36 12.2l-4.05 12.21h12.31l4.06-12.21H20.57zm4.22 24.41h12.32l4.04-12.2H28.83l-4.04 12.2zm-24.62 0h12.31l4.04-12.2H4.21L.17 50.96zm16.18-48.8H4.05L0 14.35h12.3l4.05-12.19z"/>
  <path d="M40.98 2.16H28.67l-4.06 12.19h12.32l4.05-12.19zm12.48 36.6l4.05-12.21H45.2l-4.05 12.21h12.31zM84.72 0h3.42v98.63h-3.42z"/>
</svg>
