<svg fill="none" xmlns="http://www.w3.org/2000/svg" viewBox="0 0 178 40">
  <g clip-path="url(#jMiHkWhvaSP1a)">
    <path d="M47.358 26.815c-.04-.04-.04-.121-.04-.162l.634-.77c.04-.041.119-.041.158 0 .436.365 1.11.77 1.862.77.831 0 1.306-.446 1.306-1.014 0-.527-.316-.851-1.267-.973l-.356-.04c-1.347-.203-2.06-.852-2.06-2.028 0-1.298.911-2.15 2.337-2.15.871 0 1.663.284 2.218.73.04.04.04.081.04.162l-.476.77c-.04.041-.08.082-.158.041-.555-.364-1.07-.567-1.664-.567-.712 0-1.069.405-1.069.973 0 .487.317.811 1.267.973l.357.04c1.346.204 2.059.853 2.059 2.07 0 1.216-.871 2.23-2.614 2.23-1.03-.122-2.02-.527-2.534-1.055zm6.652.812c-.04 0-.118-.041-.118-.122V20.57c0-.081.04-.122.118-.122h2.574c1.347 0 2.258.892 2.258 2.23 0 1.339-.95 2.231-2.258 2.231H55.16c-.027 0-.04.027-.04.081v2.555c0 .081-.04.122-.119.122l-.99-.04zm3.644-4.908c0-.649-.436-1.095-1.149-1.095H55.16c-.027 0-.04.027-.04.081v2.11c0 .04 0 .08.04.08h1.346c.713-.08 1.149-.527 1.149-1.176zm6.416 4.908c-.08 0-.12-.041-.159-.122l-1.307-2.799h-1.188c-.04 0-.079 0-.079.082v2.717c0 .08-.04.122-.119.122h-.99c-.079 0-.119-.041-.119-.122V20.57c0-.081.04-.122.12-.122h2.652c1.268 0 2.218.892 2.218 2.15 0 .932-.515 1.662-1.307 1.987l1.465 2.92c.04.08 0 .122-.079.122H64.07zm-.12-5.03c0-.608-.435-1.013-1.069-1.013h-1.465c-.04 0-.079 0-.079.08v1.907c0 .04 0 .081.08.081h1.464c.634 0 1.07-.405 1.07-1.054zm2.733-2.027c0-.081.04-.122.119-.122h.99c.08 0 .119.04.119.122v6.975c0 .081-.04.122-.119.122h-1.03c-.079 0-.118-.04-.118-.122.04 0 .04-6.975.04-6.975zm2.931 0c0-.081.04-.122.119-.122h.95c.08 0 .119.04.158.122l2.812 4.948h.04V20.57c0-.081.04-.122.118-.122h.872c.079 0 .118.04.118.122v6.975c0 .081-.04.122-.118.122h-.911c-.08 0-.119-.04-.159-.122l-2.89-4.947h-.04v4.947c0 .081-.04.122-.119.122h-.871c-.08 0-.119-.04-.119-.122l.04-6.975zm8.394 7.057c-.079 0-.118-.041-.118-.122v-5.84c0-.04-.04-.081-.08-.081h-1.82c-.08 0-.119-.04-.119-.122v-.892c0-.081.04-.122.119-.122h4.91c.08 0 .12.04.12.122v.892c0 .081-.04.122-.12.122h-1.821c-.04 0-.08 0-.08.08v5.881c0 .081-.039.122-.118.122.119-.04-.871-.04-.871-.04zm6.535-3.569c0-1.136.04-1.501.198-1.947.356-1.176 1.228-1.744 2.416-1.744 1.108 0 1.94.608 2.336 1.541.04.04 0 .122-.04.122l-.87.446c-.08.04-.12 0-.12-.04-.237-.487-.594-.933-1.267-.933-.673 0-1.03.365-1.227.932-.08.284-.12.568-.12 1.623 0 1.054.04 1.338.12 1.622.198.568.594.933 1.227.933.634 0 1.07-.406 1.267-.933.04-.04.08-.081.12-.04l.87.445c.04 0 .08.081.04.122-.396.933-1.228 1.541-2.336 1.541-1.11 0-2.06-.608-2.416-1.744-.158-.446-.198-.81-.198-1.946zM90.8 20.57c0-.081.04-.122.119-.122h.99c.079 0 .118.04.118.122v2.839c0 .04.04.08.08.08h2.613c.04 0 .08 0 .08-.08v-2.84c0-.08.04-.12.118-.12h.99c.08 0 .12.04.12.12v6.976c0 .081-.04.122-.12.122h-1.03c-.079 0-.118-.04-.118-.122v-2.88c0-.04-.04-.08-.08-.08h-2.613c-.04 0-.08 0-.08.08v2.88c0 .081-.039.122-.118.122h-.95c-.08 0-.12-.04-.12-.122V20.57zm8.672 0c.04-.081.04-.122.119-.122h.95c.08 0 .119.04.119.122l2.337 6.975c.039.081 0 .122-.08.122h-.99c-.079 0-.118-.04-.118-.122l-.436-1.379h-2.614l-.435 1.38c-.04.08-.04.121-.119.121h-.99c-.08 0-.08-.04-.08-.122l2.337-6.975zm1.505 4.46l-.911-2.797h-.039l-.911 2.798h1.861zm3.168-4.46c0-.081.039-.122.118-.122h.99c.04 0 .119.04.119.122v5.88c0 .04.04.082.04.082h3.168c.039 0 .119.04.119.121v.892c0 .081-.04.122-.119.122h-4.317c-.039 0-.118-.04-.118-.122V20.57zm5.742 0c0-.081.039-.122.119-.122h.99c.039 0 .118.04.118.122v5.88c0 .04.04.082.04.082h3.168c.04 0 .119.04.119.121v.892c0 .081-.04.122-.119.122h-4.316c-.04 0-.119-.04-.119-.122V20.57zm5.742 0c0-.081.04-.122.119-.122h4.316c.04 0 .119.04.119.122v.892c0 .081-.04.122-.119.122h-3.168c-.026 0-.039.027-.039.08v1.745c0 .04.039.08.039.08h2.653c.04 0 .119.041.119.122v.893c0 .08-.039.121-.119.121h-2.653c-.026 0-.039.027-.039.081v1.785c0 .04.039.081.039.081h3.168c.04 0 .119.04.119.122v.892c0 .081-.04.122-.119.122h-4.316c-.04 0-.119-.041-.119-.122V20.57zm6.019 0c0-.081.04-.122.119-.122h.951c.079 0 .118.04.158.122l2.812 4.948h.039V20.57c0-.081.04-.122.119-.122h.871c.04 0 .119.04.119.122v6.975c0 .081-.04.122-.119.122h-.95c-.079 0-.119-.04-.159-.122l-2.811-4.947h-.04v4.947c0 .081-.039.122-.119.122h-.871c-.039 0-.119-.04-.119-.122V20.57zm6.653 3.488c0-1.136.039-1.541.198-1.988.356-1.135 1.227-1.744 2.455-1.744s2.138.73 2.416 1.501c.039.04 0 .122-.04.162l-.832.406c-.039 0-.118 0-.118-.04-.317-.569-.713-.893-1.386-.893-.674 0-1.109.365-1.307.933-.079.284-.119.608-.119 1.663 0 1.054.04 1.378.119 1.662.198.568.594.933 1.307.933.594 0 1.108-.324 1.306-.892.08-.203.119-.527.119-.933 0-.04-.039-.081-.039-.081h-1.149c-.039 0-.119-.04-.119-.122v-.851c0-.081.04-.122.119-.122h2.297c.04 0 .119.04.119.122v.608c0 .608-.04 1.217-.159 1.582-.356 1.135-1.227 1.744-2.415 1.744s-2.099-.609-2.455-1.744c-.278-.365-.317-.77-.317-1.906zm6.772-3.488c0-.081.04-.122.119-.122h4.316c.04 0 .119.04.119.122v.892c0 .081-.039.122-.119.122h-3.168c-.026 0-.039.027-.039.08v1.745c0 .04.039.08.039.08h2.654c.039 0 .118.041.118.122v.893c0 .08-.039.121-.118.121h-2.654c-.026 0-.039.027-.039.081v1.785c0 .04.039.081.039.081h3.168c.04 0 .119.04.119.122v.892c0 .081-.039.122-.119.122h-4.316c-.04 0-.119-.041-.119-.122V20.57zM47.794 31.276c0-.08.04-.121.08-.121h.672c.08 0 .08.04.08.121v7.057c0 .081-.04.122-.08.122h-.633c-.08 0-.08-.04-.08-.122-.04 0-.04-7.056-.04-7.056zm2.732 0c0-.08.04-.121.08-.121h.633c.08 0 .119.04.159.121l3.088 5.435h.04v-5.434c0-.082.04-.122.08-.122h.672c.04 0 .08.04.08.121v7.057c0 .081-.04.122-.08.122h-.633c-.08 0-.119-.04-.159-.122L51.398 32.9h-.04v5.434c0 .081-.04.122-.08.122h-.672c-.04 0-.08-.04-.08-.122v-7.056zm6.693 0c0-.08.04-.121.079-.121h2.297c1.148 0 1.9.527 2.217 1.54.12.407.198.772.198 2.07 0 1.297-.079 1.703-.198 2.068-.316 1.014-1.069 1.54-2.217 1.54h-2.297c-.04 0-.08-.04-.08-.121v-6.976zm.95 6.287h1.228c.831 0 1.307-.284 1.544-.974.08-.284.119-.608.119-1.744 0-1.135-.04-1.5-.119-1.743-.198-.69-.713-.974-1.544-.974h-1.228c-.04 0-.04.04-.04.081v5.354c-.039-.041 0 0 .04 0zm5.345-.69c-.118-.405-.198-.851-.198-2.068s.04-1.622.198-2.069c.357-1.135 1.149-1.703 2.297-1.703 1.149 0 1.98.568 2.297 1.703.119.406.198.852.198 2.069s-.04 1.622-.198 2.068c-.356 1.136-1.148 1.704-2.297 1.704-1.148 0-1.94-.609-2.297-1.704zm3.762-.284c.08-.284.159-.73.159-1.784 0-1.055-.08-1.5-.159-1.785-.198-.69-.673-1.095-1.465-1.095s-1.227.365-1.425 1.095c-.08.284-.159.73-.159 1.785 0 1.054.08 1.5.159 1.784.198.69.673 1.095 1.425 1.095.753 0 1.228-.405 1.465-1.095zm2.654-5.313c0-.08.04-.121.079-.121h.633c.08 0 .12.04.159.121l3.089 5.435h.04v-5.434c0-.082.039-.122.078-.122h.634c.08 0 .08.04.08.121v7.057c0 .081-.04.122-.08.122h-.633c-.08 0-.12-.04-.159-.122L70.761 32.9h-.04v5.434c0 .081-.039.122-.079.122h-.633c-.08 0-.08-.04-.08-.122v-7.056zm6.653 0c0-.08.04-.121.08-.121h4.078c.08 0 .08.04.08.121v.69c0 .081-.04.122-.08.122h-3.247c-.04 0-.08.04-.08.08v2.15c0 .04.04.081.08.081h2.732c.08 0 .08.04.08.122v.69c0 .08-.04.121-.08.121h-2.732c-.04 0-.08.04-.08.081v2.23c0 .041.04.082.08.082h3.247c.08 0 .08.04.08.121v.69c0 .081-.04.122-.08.122h-4.04c-.078 0-.078-.041-.078-.122l-.04-7.26zm5.465 6.368c-.04-.04-.04-.122 0-.163l.436-.567c.04-.04.08-.04.119 0 .435.365 1.109.73 1.9.73.95 0 1.505-.487 1.505-1.258 0-.608-.316-1.054-1.425-1.176l-.317-.04c-1.307-.203-1.98-.852-1.98-2.028 0-1.298.871-2.109 2.218-2.109.791 0 1.544.284 2.059.69.04.04.079.08.04.162l-.357.568c-.04.04-.08.04-.119.04-.554-.365-1.07-.527-1.623-.527-.832 0-1.268.487-1.268 1.176 0 .608.396 1.014 1.426 1.176l.317.04c1.306.204 1.98.852 1.98 2.029 0 1.257-.832 2.19-2.456 2.19-1.03-.041-1.98-.447-2.455-.933zm6.376-6.368c0-.08.04-.121.079-.121h.673c.08 0 .08.04.08.121v7.057c0 .081-.04.122-.08.122h-.673c-.08 0-.08-.04-.08-.122v-7.056zm4.474 0c.04-.08.04-.121.12-.121h.633c.08 0 .119.04.119.121l2.336 7.057c.04.081 0 .122-.08.122h-.712c-.08 0-.119-.04-.119-.122l-.514-1.581h-2.733l-.515 1.581c-.04.081-.079.122-.119.122h-.712c-.08 0-.08-.04-.08-.122l2.376-7.056zm1.505 4.583l-1.069-3.325h-.04l-1.069 3.325h2.178zm55.283-32.971v1.784h13.82v1.541h-13.82v1.785h13.82v1.54h-15.563V1.347h15.563v1.542h-13.82zm-5.584 1.784h-10.653V1.346h-1.782v8.152h1.782V6.456h10.653v3.042h1.742V1.346h-1.742v3.326zm-28.948-1.501v4.543c0 1.014.792 1.825 1.743 1.825h12.711V7.754h-12.474a.23.23 0 01-.237-.243V3.415c.039-.162.158-.244.277-.244h12.434V1.346h-12.711c-.951 0-1.743.812-1.743 1.825zm-3.881 1.501h-11.207a.274.274 0 01-.277-.284V3.171c0-.162.119-.283.277-.283h12.712V1.346H99.749c-.95 0-1.742.812-1.742 1.825v1.217c0 1.014.792 1.825 1.782 1.825h11.207c.158 0 .277.122.277.284v1.217a.274.274 0 01-.277.284H98.244v1.54h13.029c.99 0 1.782-.81 1.782-1.824V6.497c0-1.014-.792-1.825-1.782-1.825zM94.285 6.74c.95-.04 1.703-.851 1.703-1.825V3.171c0-.973-.792-1.784-1.743-1.784H80.94v8.152h1.743v-2.15h9.781c.99 0 1.782.811 1.782 1.825v.325h1.782v-.04c0-1.177-.673-2.272-1.742-2.759zm-.08-1.46a.274.274 0 01-.277.284H82.682V3.131h11.246c.159 0 .317.162.317.324l-.04 1.825zM77.097 1.346H65.811c-.99 0-1.782.812-1.782 1.825v4.583c0 1.014.792 1.825 1.782 1.785h11.247c.95 0 1.742-.811 1.742-1.785V3.131c0-.973-.752-1.744-1.703-1.785zm-.04 6.084a.274.274 0 01-.276.284H66.049c-.119 0-.238-.081-.238-.203V3.415c0-.162.159-.244.277-.244h10.653c.158 0 .317.122.317.325V7.43zM60.228 1.346H46.962V9.54h1.742V7.39h11.484c.99 0 1.743-.81 1.743-1.825V3.131a1.721 1.721 0 00-1.703-1.785zm0 3.934a.274.274 0 01-.277.284H48.704V3.131h11.207c.159 0 .317.162.317.324V5.28z" fill="#fff"/>
    <path d="M178 13.107H46.962v2.434H178v-2.434z" fill="#E70006"/>
    <path d="M4.732 28.438c-.764-.544-1.647.166-1.647.754s.38.754.661.933c.281.182.242.608-.329.608-.57 0-1.136-.843-1.136-2.766 0-1.135.57-3.013 1.136-3.013.567 0 .606.426.33.608-.282.183-.662.345-.662.933 0 .588.883 1.294 1.647.754s.915-1.549.25-2.376c-.69-.86-2.646-.755-3.426-.122-.772.625-1.192 2.012-1.192 3.143 0 1.85.42 2.421 1.192 3.05.78.633 2.733.738 3.426-.122.665-.827.514-1.837-.25-2.376v-.008zm8.356 7.689c-.765-.544-1.648.166-1.648.754s.38.755.662.933c.28.183.241.608-.33.608-.57 0-1.136-.843-1.136-2.765 0-1.136.57-3.014 1.137-3.014.566 0 .606.426.329.609-.282.182-.662.344-.662.932 0 .588.883 1.294 1.648.755.764-.54.914-1.55.25-2.377-.69-.86-2.646-.754-3.426-.122-.773.625-1.192 2.012-1.192 3.144 0 1.849.42 2.42 1.192 3.05.78.632 2.732.737 3.425-.122.665-.828.515-1.838-.25-2.377v-.008zm6.019-2.19h-.04c-1.726.02-2.51 1.338-2.51 2.636s.831 2.506 2.526 2.506c1.695 0 2.527-1.2 2.527-2.506 0-1.306-.78-2.616-2.511-2.636h.008zm.693 3.954c0 .406-.32.734-.713.734a.728.728 0 01-.717-.734v-2.693c0-.401.321-.73.717-.73.198 0 .376.081.507.215.13.134.21.316.21.52v2.692l-.004-.004zm-8.316-8.967c0-1.411-.087-2.75-2.526-2.859-2.44-.11-2.919.977-2.705 1.663.174.551 1.172 1.31 2.602-.223.075-.081.194.024.126.113-.178.236-.514.524-1.156.795-1.426.605-1.869.961-1.83 1.724.052.985 1.494 1.744 3.521.243 0 0 .127.625.828.625h1.516s-.372-.272-.372-2.077l-.004-.004zm-3.057 1.493c-.847 0-.796-.795-.333-1.209.424-.377 1.113-.953 1.081-1.902a.13.13 0 00-.21-.101c-.193.15-.51.34-.82.28-.49-.09-.43-.755.04-.917.472-.162 1.406-.02 1.446 1.642.016.747-.353 2.207-1.2 2.207h-.004z" fill="#fff"/>
    <path d="M12.221 28.324c0 .762-.08 2.275-.816 2.665h2.748s-.558-1.245-.558-2.182c0-.937.198-1.59.558-1.919.36-.328.73-.235.496.013-.234.247-.547.636-.321 1.26.226.625 1.905 1.144 2.055-.916.155-2.056-2.023-1.825-2.507-.73 0 0-.023-.3.179-.701h-2.491s.653.572.653 2.51h.004z" fill="#fff"/>
    <path d="M19.895 27.971c1.276.795 2.194 1.38 2.1 2.275-.14 1.335-1.957 2.26-5.402.223-.776-.458-.701-.158-.638-.048.258.454-.32.868-.986.247-.665-.62-.182-1.926.804-1.488 1.164.515 3.437 1.683 3.988 1.273.582-.43-2.693-1.342-2.756-3.033-.04-1.071.91-1.801 1.738-1.566.828.235 1.834 1.197 1.572.653-.261-.543.598-1.164 1.03-.51.431.652-.218 2.185-1.723 1.147-1.505-1.038-1.382-.231-.962.06.42.293.946.589 1.232.767h.003zm-4.035 7.195c0-1.854.653-3.228.653-3.228h-2.617s.653 1.374.653 3.228c0 .73-.079 3.338-.816 3.707h2.943c-.737-.37-.816-2.977-.816-3.707zm-14.197.357c.091.632.408 1.8 1.537 2.648a.274.274 0 01-.032.462c-.669.357-2.055.876-2.736-.438-.69-1.33.233-2.364.804-2.843a.264.264 0 01.427.17z" fill="#fff"/>
    <path d="M4.221 32.165s-1.31.352-.431 2.664c.883 2.312 2.257 3.48 4.601 2.863 0 0-1.635 2.312-4 .852-2.126-1.314-2.45-3.058-2.443-4.092.008-1.322.915-2.397 2.27-2.287h.003z" fill="#fff"/>
    <path d="M4.83 32.278s.314.337-.158.803a.876.876 0 00.226 1.44c.523.255 1.39-.04 1.386-1.067-.004-1.026-1.453-1.172-1.453-1.172v-.004zm.627 4.518s.432-.154.214-.799c-.222-.64.19-1.196.847-1.188.618.004 1.319.722.773 1.61-.547.888-1.834.377-1.834.377zm2.689-26.028l1.6-4.948H4.871l-1.6 4.947h4.875zm6.478-4.948l-1.6 4.947H17.9l1.6-4.947h-4.875zm-6.478 4.948l-1.604 4.951h4.875l1.608-4.951h-4.88zm1.671 9.899h4.88l1.599-4.948h-4.879l-1.6 4.948zm-9.75 0h4.875l1.6-4.948H1.667l-1.6 4.948zM6.475.876H1.604L0 5.82h4.87L6.476.876z" fill="#fff"/>
    <path d="M16.229.876h-4.875L9.746 5.82h4.879L16.229.876zM21.17 15.72l1.604-4.953H17.9l-1.604 4.952h4.875zM34.55 0h-1v40h1V0z" fill="#fff"/>
  </g>
  <defs>
    <clipPath id="jMiHkWhvaSP1a">
      <path fill="#fff" d="M0 0h178v40H0z"/>
    </clipPath>
  </defs>
</svg>
