<svg fill="none" xmlns="http://www.w3.org/2000/svg" viewBox="0 0 84 32">
  <rect x=".269" width="83.581" height="32" rx="4" fill="#fff"/>
  <g clip-path="url(#oRjvpwbUOcr9a)">
    <path d="M66.913 16.65c.257-.811.983-1.328 1.838-1.328.855 0 1.624.559 1.879 1.328l.043.044h-3.767l.007-.044zm4.572 1.154h.043c.171-.003.32-.172.32-.342 0-.022 0-.042-.002-.044v-.02c0-1.775-1.388-3.185-3.097-3.185-1.708 0-3.075 1.41-3.075 3.185 0 .136 0 .272.025.404h.002l.012.04c.083.625.345 1.198.773 1.67.471.526 1.11.895 1.838 1.024h.043c.042 0 .05 0 .085.009.94.119 1.787-.009 2.479-.367.172-.09.342-.198.47-.283.042-.042.084-.081.129-.091 0-.036.022-.036.039-.036.142-.172.166-.224.056-.386a5.9 5.9 0 00-.266-.427c-.042-.042-.049-.085-.084-.104v-.023h-.012c-.089-.13-.16-.13-.245-.045-.005 0-.043.045-.044.045-.684.598-1.624.8-2.546.598a2.824 2.824 0 01-.488-.172c-.566-.299-.983-.812-1.11-1.41V17.8h4.659l-.004.003zm-11.92-1.154c.256-.811.98-1.328 1.84-1.328.861 0 1.62.559 1.881 1.328l.038.044h-3.76v-.044zm4.58 1.154h.034c.172-.003.33-.172.33-.342 0-.022 0-.042-.002-.044v-.02c0-1.775-1.396-3.185-3.101-3.185-1.706 0-3.08 1.41-3.08 3.185 0 .136 0 .272.035.404h.001l.007.04c.085.625.342 1.198.769 1.67a3.21 3.21 0 001.836 1.024h.044c.04 0 .058 0 .085.009.94.119 1.794-.009 2.48-.367.171-.09.341-.198.469-.283.042-.042.084-.081.129-.091 0-.036.03-.036.042-.036.15-.172.17-.224.061-.386-.103-.172-.188-.298-.275-.427-.042-.042-.044-.085-.085-.104v-.023h-.002c-.09-.13-.168-.13-.253-.045l-.044.045c-.684.598-1.624.8-2.537.598a3.01 3.01 0 01-.497-.172c-.557-.299-.984-.812-1.11-1.41V17.8h4.666l-.002.003zm-10.18 1.751a2.109 2.109 0 01-2.125-2.05v-.107a2.124 2.124 0 012.125-2.047c1.151 0 2.107.945 2.107 2.111a2.108 2.108 0 01-2.107 2.093zm0-5.328c-.765 0-1.48.256-2.052.727l-.073.07v-.597c0-.171-.022-.2-.19-.2h-.733c-.165 0-.196.03-.196.2v9.384c0 .146.029.189.196.189h.732c.164 0 .19-.043.19-.189v-3.914l.074.044c.573.47 1.287.726 2.052.726 1.794 0 3.248-1.436 3.248-3.203a3.253 3.253 0 00-3.248-3.236m-7.616 5.246c-1.176 0-2.115-.925-2.115-2.075 0-1.15.94-2.074 2.115-2.074 1.175 0 2.116.925 2.116 2.074 0 1.15-.942 2.075-2.116 2.075zm0-5.258c-1.795 0-3.247 1.41-3.247 3.188 0 1.779 1.452 3.178 3.248 3.178 1.795 0 3.247-1.41 3.247-3.178s-1.454-3.188-3.248-3.188zm-7.243.06a3.02 3.02 0 00-1.81.602l-.064.054v-4.36c0-.16-.047-.202-.19-.202h-.775c-.15 0-.193.043-.193.203v9.923c0 .17.043.214.193.214h.775c.143 0 .19-.051.19-.214v-3.248a1.87 1.87 0 011.876-1.836c1.027 0 1.879.828 1.879 1.855v3.23c0 .17.029.215.192.215h.768c.17 0 .192-.045.192-.215V17.25c0-1.624-1.367-2.972-3.033-2.972m-10.768 4.626v.007c-.117.162-.168.22-.19.263-.085.128-.072.194.063.298.3.257.705.513.972.641.748.384 1.55.554 2.408.597a4.852 4.852 0 001.768-.342c.94-.427 1.537-1.24 1.64-2.234.166-1.626-.892-2.637-3.61-3.453h-.002c-1.274-.424-1.872-.973-1.872-1.718.04-.841.82-1.482 1.873-1.52.839.005 1.587.247 2.326.721.157.085.221.066.329-.08.015-.005.042-.05.19-.262.13-.171.172-.256.174-.256.09-.172.085-.242-.082-.342-.153-.13-.592-.342-.838-.45a5.813 5.813 0 00-2.145-.405c-1.637.042-2.917 1.11-3.002 2.504-.044.998.467 1.81 1.537 2.408.3.171 1.389.585 1.902.728 1.452.426 2.221 1.205 2.054 2.135-.132.854-1.018 1.41-2.247 1.449a4.664 4.664 0 01-2.583-.937c-.004 0-.022-.037-.065-.044-.033-.029-.054-.043-.063-.044-.151-.126-.255-.125-.343.044-.02 0-.136.188-.192.285m-8.374-1.377a1.643 1.643 0 01-1.012 1.347 2.625 2.625 0 01-1.092.187 3.602 3.602 0 01-1.486-.386 4.643 4.643 0 01-.595-.407c-.046-.044-.054-.066-.02-.112.015-.027.047-.075.115-.175.104-.146.114-.165.126-.184.033-.047.084-.05.136-.013a2.836 2.836 0 00.038.032c.018.015.034.022.037.03a2.856 2.856 0 001.654.63c.808-.01 1.39-.374 1.497-.935.11-.61-.37-1.145-1.313-1.442-.296-.089-1.044-.386-1.182-.47-.646-.377-.948-.873-.904-1.489.066-.85.855-1.483 1.855-1.49.444 0 .89.092 1.314.27.153.066.425.213.517.285.055.04.066.085.032.134-.011.03-.044.075-.1.172-.083.126-.085.13-.1.16-.03.046-.072.05-.128.017a2.742 2.742 0 00-1.522-.473c-.693.01-1.214.425-1.248.991-.006.509.373.88 1.196 1.158 1.673.54 2.312 1.168 2.19 2.165m-2.068-8.777c1.087 0 1.976 1.032 2.02 2.324h-4.036c.039-1.294.93-2.324 2.016-2.324zm5.635 2.569a.24.24 0 00-.238-.245h-2.619C20.616 9.364 19.395 8 17.901 8c-1.492 0-2.71 1.364-2.776 3.07h-2.619a.243.243 0 00-.236.244v.019h-.003l.372 8.23c0 .021.005.043.005.07v.03l.004.005c.056.573.47 1.03 1.037 1.054v.005h8.35v-.005c.575-.014 1.046-.48 1.09-1.06v-.01l.002-.017c0-.017.005-.027.005-.044l.406-8.264v-.011" fill="#000"/>
  </g>
  <defs>
    <clipPath id="oRjvpwbUOcr9a">
      <path fill="#fff" transform="translate(12.269 8)" d="M0 0h59.581v16H0z"/>
    </clipPath>
  </defs>
</svg>
