<svg fill="none" xmlns="http://www.w3.org/2000/svg" viewBox="0 0 99 32">
  <rect width="98.293" height="32" rx="4" fill="#fff"/>
  <g clip-path="url(#C-M_Fk_i2RuDa)">
    <path fill-rule="evenodd" clip-rule="evenodd" d="M51.726 19.248c-.807.82-1.773 1.234-2.892 1.234-.906 0-1.676-.184-2.46-.642v-1.88c.633.43 1.426.838 2.21.838 1.633 0 2.604-1.126 2.604-2.719s-1.005-2.755-2.638-2.755c-.73 0-1.322.262-1.783.79-.496.57-.752 1.385-.752 2.463v7.426h-.124c-.9 0-1.63-.73-1.63-1.631v-6.073c0-2.579 1.574-4.658 4.279-4.658 1.335 0 2.42.458 3.242 1.375.774.858 1.156 1.947 1.156 3.255 0 1.165-.404 2.16-1.212 2.98v-.002zm18.963-.062c-.804.864-1.84 1.296-3.095 1.296-1.325 0-2.403-.458-3.226-1.376-.774-.87-1.156-1.957-1.156-3.254 0-2.295 1.77-4.214 4.1-4.214.898 0 1.678.19 2.467.622v1.899c-.632-.43-1.425-.838-2.209-.838-1.633 0-2.606 1.126-2.606 2.721 0 1.595 1.029 2.755 2.638 2.755.73 0 1.33-.274 1.81-.824.477-.548.725-1.351.725-2.433V9.631c0-.901.73-1.631 1.63-1.631h.123v7.82c0 1.377-.398 2.503-1.201 3.368v-.002zm4.947-8.381c-.184.206-.448.301-.77.301-.601 0-1.03-.443-1.03-1.041 0-.598.42-1.024 1.03-1.024.61 0 1.032.436 1.032 1.024 0 .292-.086.542-.262.742v-.002zm8.902 4.735c0-.691-.262-1.24-.786-1.653-.474-.374-1.063-.564-1.783-.564-1.585 0-2.605 1.242-2.605 2.771 0 1.53 1.08 2.703 2.587 2.703 1.05 0 1.61-.614 2.209-1.378v2.203c-.304.228-.656.478-1.014.624-.377.158-.827.234-1.349.234-2.523 0-4.184-2.091-4.184-4.508 0-1.241.386-2.267 1.16-3.066.821-.848 1.9-1.268 3.222-1.268 2.503 0 4.296 1.44 4.296 4.042v4.63h-.122c-.9 0-1.63-.73-1.63-1.631V15.54h-.001zm-23.978-.497c-.222-.686-.5-1.024-1.138-1.38-1.519-.85-3.012-.126-3.708 1.373l4.844.007h.002zm-1.338 5.41c-1.119.239-2.217.055-3.288-.545-1.045-.584-1.745-1.453-2.095-2.603-.71-2.32.744-4.911 3.08-5.537 1.158-.31 2.27-.17 3.325.42 1.753.981 2.393 2.499 2.279 4.454l-7.06-.014c.103.797.597 1.421 1.29 1.809.704.394 1.352.487 1.952.302.665-.21 1.207-.754 1.647-1.262l1.44 1.05c-.589 1.051-1.386 1.673-2.57 1.925v.002zm14.775-8.643h1.751v8.498h-.124c-.9 0-1.629-.73-1.629-1.631v-6.865l.002-.002zm-59.432 8.5c-1.713 0-2.565-1.168-2.565-2.797V11.33c0-.901.73-1.63 1.63-1.63h.123v2.114h2.96V13.5h-2.96v4.21c0 .716.32.918 1.002.918h1.957v1.685h-2.147v-.002zm10.177-1.074c-.866.832-1.905 1.248-3.115 1.248-1.21 0-2.233-.416-3.098-1.248-.868-.833-1.302-1.895-1.302-3.174 0-2.497 1.903-4.422 4.398-4.422 1.198 0 2.235.42 3.105 1.258.873.84 1.311 1.899 1.311 3.164 0 1.265-.434 2.34-1.301 3.174h.002zm8.192-5.379c-.258.432-.456.742-.596.928a2.401 2.401 0 01-.458.477c1.217.394 1.671 1.24 1.671 2.497v2.55h-.124c-.9 0-1.629-.729-1.629-1.63v-.746c0-.816-.366-1.367-1.227-1.367H28.98v3.744h-.124c-.9 0-1.63-.73-1.63-1.631V9.63A1.631 1.631 0 0128.856 8h.123v6.865h.518c.57 0 .944-.194 1.158-.564l1.47-2.487h1.998l-1.19 2.043zm9.045 5.38c-.866.831-1.905 1.247-3.114 1.247-1.21 0-2.233-.416-3.099-1.248-.867-.833-1.301-1.895-1.301-3.174 0-2.497 1.903-4.422 4.398-4.422 1.197 0 2.234.42 3.104 1.258.874.84 1.31 1.899 1.31 3.164 0 1.265-.434 2.34-1.302 3.174h.004zm-1.265-5.152c-.484-.506-1.096-.76-1.851-.76-1.614 0-2.58 1.178-2.58 2.739s.988 2.739 2.58 2.739c1.59 0 2.578-1.2 2.578-2.739 0-.818-.246-1.473-.727-1.979zm-17.236 0c-.484-.506-1.095-.76-1.849-.76-1.613 0-2.579 1.178-2.579 2.739s.988 2.739 2.58 2.739c1.59 0 2.578-1.2 2.578-2.739 0-.818-.246-1.473-.728-1.979h-.002z" fill="#000"/>
  </g>
  <defs>
    <clipPath id="C-M_Fk_i2RuDa">
      <path fill="#fff" transform="translate(12 8)" d="M0 0h74.293v16H0z"/>
    </clipPath>
  </defs>
</svg>
