<svg fill="none" xmlns="http://www.w3.org/2000/svg" viewBox="0 0 114 32">
  <rect x=".293" width="112.976" height="32" rx="4" fill="#fff"/>
  <g clip-path="url(#Od_E0NIxdV1za)" fill="#000">
    <path d="M56.017 13.311a3.813 3.813 0 00-3.814 3.81 3.813 3.813 0 003.81 3.813h.002a3.811 3.811 0 003.811-3.811 3.81 3.81 0 00-3.81-3.814v.002zm0 5.665a1.855 1.855 0 01-1.854-1.853 1.855 1.855 0 013.707 0c0 1.022-.83 1.853-1.853 1.853zm18.058-.726c.013.417.203.81.58 1.146.377.339.85.499 1.417.499 1.12 0 1.757-.595 1.877-1.364.068-.918-.61-1.444-1.58-1.662l-1.2-.298c-1.513-.392-2.267-1.202-2.267-2.43 0-.77.298-1.392.89-1.878.594-.498 1.297-.741 2.12-.741.865 0 1.578.255 2.145.756.57.499.85 1.148.85 1.97H77.65c0-.917-.728-1.525-1.755-1.525a2.02 2.02 0 00-1.227.392 1.214 1.214 0 00-.514 1.012c0 .648.446 1.08 1.323 1.298l1.215.298c1.768.445 2.66 1.457 2.486 2.917a2.593 2.593 0 01-.959 1.74c-.554.46-1.27.69-2.147.69-.931 0-1.703-.283-2.323-.837-.62-.566-.93-1.227-.93-1.985h1.254l.002.002zm7.442 2.684H80.29V11.2h1.23v4.376c.174-.351.46-.62.864-.797a2.94 2.94 0 011.217-.283c1.579 0 2.565 1.027 2.552 2.795v3.645h-1.23v-3.564c0-1.027-.606-1.675-1.484-1.675-.499 0-.946.15-1.338.46-.392.299-.58.757-.58 1.38v3.4l-.004-.003zm6.485-5.535c.635-.61 1.417-.905 2.35-.905s1.715.298 2.35.905.959 1.391.959 2.363c0 .971-.324 1.768-.974 2.39-.635.61-1.416.919-2.335.919-.918 0-1.702-.312-2.335-.919-.632-.607-.958-1.404-.958-2.39 0-.972.313-1.756.945-2.363h-.002zm3.823.865c-.392-.379-.891-.569-1.473-.569-.581 0-1.08.19-1.485.57-.39.376-.594.877-.594 1.497 0 .62.202 1.148.594 1.538.405.392.906.58 1.485.58.58 0 1.08-.19 1.472-.58.405-.392.608-.905.608-1.538 0-.62-.203-1.12-.608-1.498zm4.081-1.634v.986c.42-.702 1.298-1.12 2.201-1.12.904 0 1.634.31 2.242.918.607.607.918 1.404.918 2.39 0 .987-.311 1.756-.918 2.363-.61.61-1.351.906-2.242.906-.89 0-1.808-.377-2.2-1.08v4.01h-1.228V14.63h1.227zm.635 4.7a2.12 2.12 0 001.445.541c1.174 0 2.039-.824 2.039-2.054 0-.62-.203-1.135-.595-1.525a1.952 1.952 0 00-1.444-.595c-.58 0-1.068.19-1.472.58-.39.377-.595.89-.595 1.538 0 .635.203 1.148.62 1.513l.002.002zm-60.974-7.732c-.311 0-.59.124-.793.329a1.122 1.122 0 00.793 1.913 1.121 1.121 0 000-2.242zm29.878 4.864l2.793-2.707H65.58l-2.207 2.164v-4.35H61.15v9.367h2.224v-2.46l.66-.64 2.086 3.103h2.454l-3.125-4.474-.004-.003zm-23.583 0l2.79-2.707h-2.655l-2.208 2.164v-4.35h-2.224v9.367h2.224v-2.46l.66-.64 2.087 3.103h2.454l-3.126-4.474-.002-.003zm-7.407-1.896l.013 6.368h2.21v-6.368h-2.223zm10.959-2.972v1.99l2.262-.002v7.35h2.252v-7.348h1.958l.64-1.988h-7.112v-.002zm-18.333 0v1.99l2.263-.002v7.35h2.247v-7.348h1.803l.637-1.988h-6.95v-.002zm-2.887-.328v.524h-.01v.032l-.005 1.77c-1.17 0-2.312-.37-3.26-1.056v4.796a4.3 4.3 0 01-4.29 4.303h-.015a4.345 4.345 0 01-1.91-.43 5.385 5.385 0 01-.327-.181 4.312 4.312 0 01-2.084-3.692 4.321 4.321 0 014.316-4.321c.194.002.392.017.584.045v.556h-.015v1.813a1.848 1.848 0 00-.569-.083 2.004 2.004 0 00-1.987 1.99c0 .607.29 1.152.726 1.512.104.088.22.164.347.232 0 .003.002.003.002.005a1.971 1.971 0 002.883-1.677l.004-9.402h2.346c0 .2.017.399.055.595h-.017l.005.019c.127.66.46 1.25.926 1.704.158.158.333.294.516.416h.002l.004.004a3.247 3.247 0 001.77.526h.003z"/>
  </g>
  <defs>
    <clipPath id="Od_E0NIxdV1za">
      <path fill="#fff" transform="translate(12.293 8)" d="M0 0h88.976v16H0z"/>
    </clipPath>
  </defs>
</svg>
